<svg width="192" height="54" viewBox="0 0 192 54" fill="none" xmlns="http://www.w3.org/2000/svg">
<path d="M61.0604 44.207V15.8865C62.9968 15.8058 64.6912 15.7386 66.1436 15.6848C67.5959 15.631 68.8196 15.6041 69.8147 15.6041C70.8368 15.5772 71.6033 15.5638 72.1143 15.5638C74.6424 15.5638 76.7402 15.7655 78.4077 16.1689C80.0752 16.5454 81.3796 17.1371 82.3209 17.944C83.2623 18.7508 83.9347 19.7998 84.3381 21.0907C84.7415 22.3817 84.9432 23.9416 84.9432 25.7705C84.9432 27.6531 84.7415 29.2668 84.3381 30.6116C83.9615 31.9563 83.3295 33.059 82.442 33.9197C81.5813 34.7803 80.4517 35.4258 79.0532 35.8561C77.6547 36.2595 75.9334 36.4613 73.8893 36.4613C73.2977 36.4613 72.8001 36.4613 72.3967 36.4613C72.0201 36.4613 71.6839 36.4613 71.3881 36.4613C71.0923 36.4613 70.7964 36.4613 70.5006 36.4613C70.2047 36.4344 69.8551 36.4075 69.4517 36.3806C69.0482 36.3537 68.5372 36.3268 67.9186 36.2999V44.207H61.0604ZM67.9186 21.1311V30.9343C68.349 30.9612 68.7255 30.9881 69.0482 31.015C69.371 31.015 69.6668 31.0284 69.9358 31.0553C70.2316 31.0553 70.514 31.0553 70.783 31.0553C71.0788 31.0553 71.4016 31.0553 71.7512 31.0553C73.069 31.0553 74.1314 30.9612 74.9383 30.7729C75.772 30.5847 76.404 30.2754 76.8344 29.8451C77.2916 29.4147 77.6009 28.8499 77.7622 28.1507C77.9236 27.4514 78.0043 26.6042 78.0043 25.6091C78.0043 24.7753 77.9236 24.0761 77.7622 23.5113C77.6009 22.9196 77.3185 22.4355 76.915 22.0589C76.5385 21.6824 76.0006 21.4135 75.3013 21.2521C74.6021 21.0638 73.7145 20.9697 72.6387 20.9697C72.2891 20.9697 71.9663 20.9697 71.6705 20.9697C71.3747 20.9697 71.0519 20.9831 70.7023 21.01C70.3795 21.01 69.9896 21.0235 69.5323 21.0504C69.102 21.0773 68.5641 21.1042 67.9186 21.1311ZM93.4974 22.2607V24.8022C94.2505 24.103 94.9363 23.5382 95.5549 23.1078C96.1735 22.6775 96.8055 22.3682 97.451 22.18C98.0965 21.9648 98.8092 21.8572 99.5892 21.8572C100.019 21.8572 100.477 21.8976 100.961 21.9783C101.445 22.032 101.929 22.1396 102.413 22.301L101.364 28.2717C100.88 28.1641 100.396 28.0834 99.9119 28.0296C99.4278 27.949 98.984 27.9086 98.5806 27.9086C97.8813 27.9086 97.1686 28.0296 96.4424 28.2717C95.7163 28.4869 94.9363 28.8903 94.1026 29.482V44.207H87.5267V22.2607H93.4974ZM113.25 44.6105C111.529 44.6105 110.009 44.4087 108.691 44.0053C107.374 43.575 106.244 42.9295 105.303 42.0689C104.388 41.1813 103.689 40.0517 103.205 38.6801C102.721 37.2816 102.479 35.6275 102.479 33.718C102.479 31.5395 102.748 29.6971 103.286 28.191C103.85 26.6849 104.617 25.4612 105.585 24.5198C106.58 23.5785 107.75 22.9061 109.095 22.5027C110.44 22.0724 111.905 21.8572 113.492 21.8572C116.72 21.8572 119.086 22.6506 120.593 24.2374C122.126 25.8242 122.892 28.4062 122.892 31.9832C122.892 32.2522 122.879 32.6018 122.852 33.0321C122.852 33.4356 122.838 33.839 122.811 34.2424C122.139 34.2962 121.319 34.3634 120.35 34.4441C119.382 34.5248 118.306 34.6055 117.123 34.6862C115.94 34.7669 114.689 34.8341 113.371 34.8879C112.053 34.9417 110.709 34.982 109.337 35.0089C109.31 35.0896 109.297 35.1703 109.297 35.251C109.297 35.3317 109.297 35.4258 109.297 35.5334C109.297 36.4209 109.471 37.1605 109.821 37.7522C110.198 38.317 110.762 38.7473 111.515 39.0432C112.269 39.3121 113.25 39.4466 114.46 39.4466C115.214 39.4466 116.007 39.4063 116.841 39.3256C117.674 39.2449 118.522 39.1373 119.382 39.0028C120.243 38.8415 121.104 38.6666 121.964 38.4784L122.731 43.2388C121.789 43.5347 120.821 43.7902 119.826 44.0053C118.831 44.2205 117.795 44.3684 116.72 44.4491C115.644 44.5567 114.487 44.6105 113.25 44.6105ZM109.377 31.0957C110.077 31.0957 110.776 31.0822 111.475 31.0553C112.174 31.0284 112.833 31.0016 113.452 30.9747C114.07 30.9209 114.622 30.8805 115.106 30.8536C115.59 30.8267 115.993 30.8133 116.316 30.8133C116.289 29.7375 116.155 28.8903 115.913 28.2717C115.671 27.6262 115.321 27.169 114.864 26.9001C114.407 26.6311 113.828 26.4966 113.129 26.4966C112.645 26.4966 112.201 26.5639 111.798 26.6983C111.394 26.8328 111.018 27.0749 110.668 27.4245C110.346 27.7472 110.063 28.2179 109.821 28.8365C109.606 29.4282 109.458 30.1813 109.377 31.0957ZM125.86 44.207V22.2607H131.831V24.1568C132.638 23.6189 133.418 23.1885 134.171 22.8658C134.924 22.5431 135.663 22.301 136.389 22.1396C137.143 21.9783 137.896 21.8976 138.649 21.8976C139.509 21.8976 140.249 21.9917 140.868 22.18C141.486 22.3682 142.024 22.6506 142.481 23.0272C142.938 23.3768 143.315 23.8206 143.611 24.3585C144.525 23.7937 145.372 23.3365 146.152 22.9868C146.959 22.6103 147.753 22.3279 148.533 22.1396C149.339 21.9514 150.187 21.8572 151.074 21.8572C151.881 21.8572 152.594 21.9648 153.212 22.18C153.858 22.3682 154.409 22.6506 154.866 23.0272C155.351 23.4037 155.754 23.8475 156.077 24.3585C156.399 24.8695 156.628 25.4477 156.763 26.0932C156.924 26.7387 157.005 27.4245 157.005 28.1507V44.207H150.388V30.3292C150.388 29.9257 150.348 29.5492 150.267 29.1996C150.187 28.8231 150.052 28.5138 149.864 28.2717C149.703 28.0028 149.461 27.801 149.138 27.6666C148.842 27.5321 148.465 27.4648 148.008 27.4648C147.605 27.4648 147.201 27.5186 146.798 27.6262C146.421 27.7069 146.045 27.8279 145.668 27.9893C145.319 28.1238 144.969 28.2851 144.619 28.4734C144.673 28.6886 144.7 28.9172 144.7 29.1592C144.727 29.3744 144.74 29.5896 144.74 29.8047V44.207H138.124V30.3292C138.124 29.9526 138.084 29.5896 138.003 29.2399C137.923 28.8634 137.788 28.5541 137.6 28.312C137.412 28.0431 137.156 27.8414 136.833 27.7069C136.537 27.5455 136.161 27.4648 135.704 27.4648C135.354 27.4648 134.991 27.5186 134.614 27.6262C134.265 27.7069 133.915 27.8279 133.566 27.9893C133.216 28.1238 132.853 28.2851 132.476 28.4734V44.207H125.86ZM163.995 19.9208C162.65 19.9208 161.655 19.6518 161.01 19.1139C160.391 18.576 160.082 17.7423 160.082 16.6127C160.082 15.4831 160.391 14.6493 161.01 14.1114C161.655 13.5735 162.65 13.3046 163.995 13.3046C165.34 13.3046 166.322 13.5735 166.94 14.1114C167.559 14.6493 167.868 15.4831 167.868 16.6127C167.868 17.7423 167.559 18.576 166.94 19.1139C166.349 19.6518 165.367 19.9208 163.995 19.9208ZM160.687 44.207V22.2607H167.263V44.207H160.687ZM169.882 38.196C169.882 36.8781 170.124 35.7889 170.609 34.9282C171.12 34.0676 171.886 33.3818 172.908 32.8708C173.957 32.3598 175.275 31.9698 176.862 31.7008C178.448 31.405 180.331 31.1764 182.51 31.015V29.6837C182.51 28.8768 182.173 28.2851 181.501 27.9086C180.829 27.5321 179.86 27.3438 178.596 27.3438C178.032 27.3438 177.386 27.3707 176.66 27.4245C175.934 27.4783 175.181 27.5724 174.401 27.7069C173.648 27.8414 172.868 28.0296 172.061 28.2717L171.012 23.1078C172.222 22.7313 173.554 22.4355 175.006 22.2203C176.458 21.9783 177.803 21.8572 179.04 21.8572C181.407 21.8572 183.316 22.1531 184.769 22.7448C186.248 23.3096 187.324 24.1702 187.996 25.3267C188.695 26.4832 189.045 27.9086 189.045 29.603V37.2681C189.045 37.9405 189.139 38.3842 189.328 38.5994C189.543 38.8146 189.785 38.9221 190.054 38.9221C190.188 38.9221 190.336 38.9221 190.497 38.9221C190.686 38.8953 190.847 38.8549 190.982 38.8011L191.506 43.5212C190.968 43.8439 190.363 44.0995 189.691 44.2877C189.045 44.5029 188.319 44.6105 187.512 44.6105C186.382 44.6105 185.455 44.4087 184.728 44.0053C184.029 43.575 183.505 42.9295 183.155 42.0689C182.456 42.5799 181.743 43.0371 181.017 43.4405C180.318 43.8171 179.551 44.0995 178.717 44.2877C177.911 44.5029 176.996 44.6105 175.974 44.6105C175.06 44.6105 174.226 44.4625 173.473 44.1667C172.747 43.8708 172.101 43.454 171.536 42.9161C170.999 42.3513 170.582 41.6789 170.286 40.8989C170.017 40.119 169.882 39.218 169.882 38.196ZM176.539 37.7926C176.539 38.6532 176.727 39.2852 177.104 39.6887C177.48 40.0921 177.978 40.2938 178.596 40.2938C179.027 40.2938 179.47 40.2266 179.928 40.0921C180.412 39.9576 180.882 39.7693 181.34 39.5273C181.797 39.2583 182.187 38.9625 182.51 38.6398V34.5248C181.514 34.6055 180.64 34.7131 179.887 34.8475C179.161 34.9551 178.543 35.1299 178.032 35.372C177.521 35.6141 177.144 35.9368 176.902 36.3402C176.66 36.7168 176.539 37.2009 176.539 37.7926Z" fill="url(#paint0_linear_303_4622)"/>
<path d="M21.1857 30.2456V10.1852C22.5573 10.1281 23.7575 10.0805 24.7863 10.0424C25.815 10.0043 26.6818 9.98521 27.3867 9.98521C28.1106 9.96616 28.6536 9.95664 29.0155 9.95664C30.8063 9.95664 32.2922 10.0995 33.4734 10.3853C34.6545 10.652 35.5785 11.0711 36.2453 11.6426C36.912 12.2141 37.3883 12.9571 37.6741 13.8716C37.9598 14.786 38.1027 15.8909 38.1027 17.1864C38.1027 18.5199 37.9598 19.663 37.6741 20.6155C37.4073 21.568 36.9597 22.3491 36.331 22.9587C35.7214 23.5683 34.9212 24.0256 33.9306 24.3304C32.94 24.6161 31.7207 24.759 30.2729 24.759C29.8538 24.759 29.5013 24.759 29.2156 24.759C28.9488 24.759 28.7107 24.759 28.5012 24.759C28.2916 24.759 28.082 24.759 27.8725 24.759C27.6629 24.74 27.4153 24.7209 27.1295 24.7019C26.8437 24.6828 26.4818 24.6638 26.0436 24.6447V30.2456H21.1857ZM26.0436 13.9001V20.8441C26.3484 20.8631 26.6151 20.8822 26.8437 20.9013C27.0724 20.9013 27.2819 20.9108 27.4724 20.9298C27.682 20.9298 27.882 20.9298 28.0725 20.9298C28.2821 20.9298 28.5107 20.9298 28.7583 20.9298C29.6918 20.9298 30.4443 20.8631 31.0158 20.7298C31.6064 20.5964 32.0541 20.3774 32.3589 20.0725C32.6828 19.7677 32.9019 19.3677 33.0162 18.8724C33.1305 18.377 33.1876 17.7769 33.1876 17.0721C33.1876 16.4815 33.1305 15.9862 33.0162 15.5861C32.9019 15.167 32.7018 14.8241 32.4161 14.5574C32.1494 14.2907 31.7683 14.1002 31.273 13.9859C30.7777 13.8525 30.149 13.7858 29.387 13.7858C29.1394 13.7858 28.9107 13.7858 28.7012 13.7858C28.4916 13.7858 28.263 13.7953 28.0154 13.8144C27.7868 13.8144 27.5105 13.8239 27.1867 13.843C26.8818 13.862 26.5008 13.8811 26.0436 13.9001Z" fill="url(#paint1_linear_303_4622)"/>
<path d="M55.2442 8.65192H44.1731C42.4703 6.08496 40.1588 3.97928 37.4447 2.52265C34.7305 1.06602 31.698 0.303711 28.6176 0.303711C25.5373 0.303711 22.5048 1.06602 19.7906 2.52265C17.0765 3.97928 14.7649 6.08496 13.0622 8.65192H2.07406C1.52398 8.65192 0.996438 8.87044 0.607477 9.2594C0.218516 9.64836 0 10.1759 0 10.726V14.8741C0.00360785 16.1578 0.404189 17.409 1.14683 18.4561C1.88946 19.5032 2.9378 20.295 4.14811 20.7229V23.1703C4.14811 24.8205 4.80366 26.4032 5.97055 27.5701C7.13743 28.7369 8.72006 29.3925 10.3703 29.3925H13.1452C14.0207 30.6824 15.0516 31.8596 16.2148 32.8976V49.2254C16.2159 49.6163 16.3275 49.999 16.5366 50.3292C16.7458 50.6595 17.0441 50.9239 17.397 51.092C17.7338 51.2378 18.1033 51.2915 18.4676 51.2478C18.832 51.204 19.1783 51.0644 19.4711 50.8432L28.6591 43.584L37.7435 50.8432C38.1084 51.1359 38.5616 51.2967 39.0294 51.2994C39.3392 51.3046 39.6455 51.2333 39.9213 51.092C40.2742 50.9239 40.5725 50.6595 40.7816 50.3292C40.9908 49.999 41.1024 49.6163 41.1035 49.2254V32.8976C42.2666 31.8596 43.2976 30.6824 44.1731 29.3925H46.948C48.5982 29.3925 50.1808 28.7369 51.3477 27.5701C52.5146 26.4032 53.1701 24.8205 53.1701 23.1703V20.7229C54.3805 20.295 55.4288 19.5032 56.1714 18.4561C56.9141 17.409 57.3146 16.1578 57.3183 14.8741V10.726C57.3183 10.1759 57.0997 9.64836 56.7108 9.2594C56.3218 8.87044 55.7943 8.65192 55.2442 8.65192ZM4.14811 12.8H11.0919C10.6097 14.141 10.2826 15.5328 10.1171 16.9482H6.22217C5.6721 16.9482 5.14455 16.7296 4.75559 16.3407C4.36663 15.9517 4.14811 15.4242 4.14811 14.8741V12.8ZM10.3703 25.2444C9.82021 25.2444 9.29267 25.0259 8.90371 24.6369C8.51474 24.2479 8.29623 23.7204 8.29623 23.1703V21.0963H10.1171C10.2826 22.5116 10.6097 23.9034 11.0919 25.2444H10.3703ZM36.9554 44.9114L30.7332 39.9336H28.6591H26.5851L20.3629 44.9114V35.7184C22.9367 37.0133 25.7779 37.6877 28.6591 37.6877C31.5403 37.6877 34.3815 37.0133 36.9554 35.7184V44.9114ZM28.6591 33.5406C25.7877 33.5406 22.9807 32.6891 20.5931 31.0938C18.2056 29.4985 16.3447 27.2311 15.2459 24.5782C14.147 21.9253 13.8595 19.0061 14.4197 16.1898C14.9799 13.3735 16.3626 10.7866 18.3931 8.75615C20.4235 6.72571 23.0104 5.34297 25.8267 4.78277C28.643 4.22258 31.5622 4.51009 34.2151 5.60895C36.868 6.70782 39.1354 8.56868 40.7307 10.9562C42.326 13.3438 43.1775 16.1507 43.1775 19.0222C43.1775 22.8727 41.6479 26.5655 38.9252 29.2883C36.2025 32.011 32.5096 33.5406 28.6591 33.5406ZM46.948 25.2444H46.2264C46.7086 23.9034 47.0357 22.5116 47.2012 21.0963H49.022V23.1703C49.022 23.7204 48.8035 24.2479 48.4146 24.6369C48.0256 25.0259 47.498 25.2444 46.948 25.2444ZM53.1701 14.8741C53.1701 15.4242 52.9516 15.9517 52.5627 16.3407C52.1737 16.7296 51.6462 16.9482 51.0961 16.9482H47.2012C47.0357 15.5328 46.7086 14.141 46.2264 12.8H53.1701V14.8741Z" fill="url(#paint2_linear_303_4622)"/>
<defs>
<linearGradient id="paint0_linear_303_4622" x1="183.989" y1="44.707" x2="32.9784" y2="6.56454" gradientUnits="userSpaceOnUse">
<stop stop-color="#7400B8"/>
<stop offset="0.214014" stop-color="#5390D9"/>
<stop offset="0.63" stop-color="#56CFE1"/>
<stop offset="0.669683" stop-color="#58D1E1"/>
<stop offset="0.874465" stop-color="#80FFDB"/>
</linearGradient>
<linearGradient id="paint1_linear_303_4622" x1="38.4332" y1="31.2248" x2="14.3453" y2="29.9331" gradientUnits="userSpaceOnUse">
<stop stop-color="#7400B8"/>
<stop offset="0.214014" stop-color="#5390D9"/>
<stop offset="0.63" stop-color="#56CFE1"/>
<stop offset="0.669683" stop-color="#58D1E1"/>
<stop offset="0.874465" stop-color="#80FFDB"/>
</linearGradient>
<linearGradient id="paint2_linear_303_4622" x1="53.9341" y1="42.2692" x2="-14.5788" y2="35.2494" gradientUnits="userSpaceOnUse">
<stop stop-color="#7400B8"/>
<stop offset="0.214014" stop-color="#5390D9"/>
<stop offset="0.63" stop-color="#56CFE1"/>
<stop offset="0.669683" stop-color="#58D1E1"/>
<stop offset="0.874465" stop-color="#80FFDB"/>
</linearGradient>
</defs>
</svg>
